<svg width="384" height="512" xmlns="http://www.w3.org/2000/svg">

 <g>
  <title>background</title>
  <rect fill="none" id="canvas_background" height="402" width="582" y="-1" x="-1"/>
 </g>
 <g>
  <title>Layer 1</title>
  <path fill="#ffffff" id="svg_1" d="m272,428l0,28c0,10.449 -6.68,19.334 -16,22.629l0,9.371c0,13.255 -10.745,24 -24,24l-80,0c-13.255,0 -24,-10.745 -24,-24l0,-9.371c-9.32,-3.295 -16,-12.18 -16,-22.629l0,-28c0,-6.627 5.373,-12 12,-12l136,0c6.627,0 12,5.373 12,12zm-143.107,-44c-9.907,0 -18.826,-6.078 -22.376,-15.327c-38.82,-101.132 -90.517,-90.942 -90.517,-192.673c0,-97.197 78.805,-176 176,-176s176,78.803 176,176c0,101.731 -51.697,91.541 -90.516,192.673c-3.55,9.249 -12.47,15.327 -22.376,15.327l-126.215,0zm-16.893,-208c0,-44.112 35.888,-80 80,-80c8.837,0 16,-7.164 16,-16s-7.163,-16 -16,-16c-61.757,0 -112,50.243 -112,112c0,8.836 7.164,16 16,16s16,-7.164 16,-16z"/>
 </g>
</svg>